<?xml version="1.0" standalone="no"?>
<!DOCTYPE svg PUBLIC "-//W3C//DTD SVG 20010904//EN"
 "http://www.w3.org/TR/2001/REC-SVG-20010904/DTD/svg10.dtd">
<svg version="1.0" xmlns="http://www.w3.org/2000/svg"
 width="1080.000000pt" height="1080.000000pt" viewBox="0 0 1080.000000 1080.000000"
 preserveAspectRatio="xMidYMid meet">
<metadata>
Created by potrace 1.14, written by Peter Selinger 2001-2017
</metadata>
<g transform="translate(0.000000,1080.000000) scale(0.100000,-0.100000)"
fill="#000000" stroke="none">
<path d="M6811 10672 c-56 -56 -31 -141 47 -161 49 -12 161 -19 427 -26 421
-12 688 -58 1027 -179 473 -168 882 -437 1274 -837 227 -233 413 -477 558
-731 27 -48 68 -78 105 -78 51 0 101 48 101 97 0 25 -134 245 -238 390 -226
315 -532 630 -837 859 -403 304 -868 515 -1345 613 -181 37 -326 52 -590 61
-146 5 -318 12 -382 16 l-117 7 -30 -31z"/>
<path d="M5113 10649 c-240 -23 -509 -100 -853 -245 -158 -66 -454 -217 -575
-293 -223 -140 -271 -186 -260 -247 5 -31 5 -31 -67 -52 -163 -47 -336 -67
-708 -82 -253 -10 -331 -19 -414 -50 -47 -18 -106 -63 -95 -74 2 -2 51 -29
109 -60 134 -70 338 -130 415 -122 l50 6 -25 -21 c-93 -77 -173 -155 -277
-271 -138 -154 -474 -571 -498 -619 -36 -68 24 -149 99 -135 40 8 57 26 248
266 208 261 325 396 445 511 120 115 218 182 378 259 125 60 161 88 174 136 6
25 15 30 92 49 142 36 187 54 215 88 22 26 25 38 21 72 l-6 40 72 51 c303 214
836 456 1222 553 106 27 307 51 422 51 51 0 161 -5 245 -11 138 -10 155 -10
184 6 54 29 67 79 34 132 -24 41 -56 49 -235 62 -157 12 -290 12 -412 0z"/>
<path d="M6292 8610 c-43 -26 -69 -85 -82 -186 -6 -44 -28 -185 -50 -314 -83
-501 -104 -771 -98 -1253 l5 -377 -26 22 c-140 122 -307 318 -466 548 -153
221 -191 260 -253 260 -62 0 -111 -73 -98 -149 3 -20 33 -126 66 -235 33 -110
60 -206 60 -214 0 -20 -45 39 -149 193 -122 180 -190 299 -286 499 -147 304
-241 598 -305 950 -24 132 -36 157 -85 181 -31 14 -37 14 -64 0 -70 -36 -74
-74 -31 -291 l30 -149 -22 -15 c-88 -61 -321 -288 -451 -442 -243 -285 -522
-676 -777 -1090 l-85 -136 -5 175 -5 175 -33 29 c-52 47 -113 34 -147 -31 -20
-38 -20 -304 -1 -450 18 -135 58 -312 100 -444 l33 -103 -25 -49 c-18 -36 -25
-66 -26 -112 -1 -60 1 -65 33 -94 33 -30 66 -34 111 -15 11 5 27 -16 62 -83
26 -50 45 -90 41 -90 -3 0 -38 20 -78 45 -89 55 -227 197 -299 307 -30 46 -62
91 -73 100 -47 43 -117 26 -147 -35 -11 -25 -24 -36 -46 -41 -151 -30 -392
-376 -470 -675 -50 -190 -19 -432 85 -681 130 -306 301 -467 571 -536 135 -34
222 -39 332 -20 50 9 93 16 95 16 2 0 29 -32 61 -71 119 -144 302 -281 470
-352 127 -54 309 -117 335 -117 29 0 63 25 80 57 35 68 -19 124 -174 178 -246
86 -372 162 -510 307 -272 286 -474 773 -565 1364 -27 177 -27 175 13 137 93
-88 242 -172 392 -223 159 -54 214 -48 249 25 24 50 13 79 -79 215 -71 106
-175 304 -206 392 -16 47 -7 67 96 223 140 213 323 414 478 529 95 70 257 149
359 175 72 19 225 43 358 57 55 5 69 11 97 39 44 44 43 77 -1 121 -32 32 -39
34 -97 34 -91 0 -317 -35 -423 -66 -253 -72 -477 -223 -696 -469 -71 -79 -194
-238 -239 -310 l-30 -47 -15 53 c-24 86 -23 92 5 116 28 24 56 66 189 283 255
415 560 839 808 1121 109 124 291 301 316 307 8 2 27 -41 51 -115 110 -335
286 -683 512 -1012 91 -131 189 -258 252 -325 67 -72 154 -95 206 -54 56 44
69 134 40 284 -8 43 -13 79 -12 81 2 2 35 -36 73 -84 79 -101 358 -380 423
-423 25 -17 58 -30 74 -30 39 0 92 26 111 55 36 55 39 105 27 434 -18 507 15
955 108 1471 11 58 23 124 26 148 l7 43 122 -183 c237 -357 380 -533 666 -819
l205 -206 -98 -12 c-116 -14 -245 -45 -305 -74 -69 -32 -90 -93 -52 -148 31
-43 68 -45 200 -11 126 33 276 52 403 52 l82 0 150 -112 150 -113 -120 -2
c-270 -4 -460 -93 -686 -323 -120 -123 -180 -202 -229 -304 -92 -190 -115
-410 -69 -651 43 -232 210 -450 424 -553 88 -43 267 -99 381 -118 166 -28 334
-10 534 56 168 57 265 114 354 211 59 64 62 63 46 -22 -25 -133 -12 -201 46
-227 59 -28 115 -2 179 83 67 90 181 287 296 510 56 110 104 202 105 204 2 2
15 -4 28 -13 50 -32 84 -22 181 54 126 99 219 135 326 128 137 -10 257 -102
329 -252 68 -141 75 -179 75 -376 -1 -344 -68 -561 -222 -716 -192 -193 -457
-247 -753 -152 -83 27 -99 29 -127 18 -30 -10 -36 -9 -64 14 -52 44 -89 31
-158 -56 -89 -113 -224 -208 -482 -338 -257 -130 -470 -215 -574 -230 -48 -7
-65 -15 -87 -40 -40 -43 -37 -83 7 -127 35 -35 37 -36 98 -30 114 11 394 122
686 273 196 101 329 191 434 295 l89 87 46 -24 c101 -51 216 -76 372 -81 131
-4 154 -2 243 21 177 45 303 120 430 256 176 186 258 448 261 832 1 181 2 186
20 170 11 -11 35 -17 62 -17 39 0 49 5 99 55 107 105 188 245 259 449 l36 103
0 881 0 882 -40 73 c-98 180 -220 331 -286 352 -29 10 -39 9 -68 -9 -41 -26
-60 -70 -45 -108 5 -14 33 -53 63 -87 75 -86 139 -188 217 -351 120 -249 152
-416 131 -691 -19 -234 -72 -539 -138 -789 -77 -288 -132 -410 -244 -542 -36
-43 -70 -87 -74 -98 -7 -16 -14 -4 -36 60 -50 146 -113 249 -208 337 -72 66
-132 101 -232 135 -64 21 -88 24 -160 21 -122 -7 -205 -38 -345 -127 -19 -12
-25 -9 -57 23 -93 93 -171 13 -376 -387 l-117 -229 -7 194 c-9 271 -26 556
-33 568 -7 11 -75 533 -70 538 2 2 45 -34 95 -80 140 -126 231 -198 277 -219
39 -18 45 -18 78 -5 22 10 41 27 51 50 25 52 7 83 -100 171 -50 41 -131 111
-181 156 -49 44 -129 110 -177 146 -86 64 -87 65 -98 121 -46 242 -81 344
-132 387 -42 35 -91 34 -129 -4 -36 -36 -37 -68 -5 -137 23 -51 50 -153 42
-161 -2 -2 -26 7 -53 20 -127 65 -352 127 -531 148 l-111 12 -88 75 c-152 130
-440 421 -568 573 -132 158 -260 333 -400 549 -159 244 -203 290 -281 290 -22
0 -54 -9 -72 -20z m1850 -1756 c86 -31 253 -114 285 -140 18 -15 25 -40 37
-127 22 -147 23 -142 -30 -102 -52 40 -82 50 -124 42 -16 -4 -44 0 -62 8 l-33
14 49 1 c41 0 53 5 82 34 37 37 42 62 19 105 -15 29 -68 61 -103 61 -18 0
-202 113 -202 125 0 8 4 7 82 -21z m-21 -259 l44 -26 -40 7 c-49 8 -55 11 -55
30 0 18 1 18 51 -11z m-5412 -1245 c36 -426 160 -881 336 -1237 35 -70 61
-130 58 -133 -2 -3 -46 -4 -96 -4 -104 2 -240 37 -317 81 -100 59 -189 170
-259 324 -100 221 -130 441 -82 614 29 106 115 281 186 378 60 82 145 155 156
134 3 -7 11 -77 18 -157z"/>
<path d="M10354 8536 c-57 -57 -49 -82 70 -206 45 -47 147 -161 226 -255 l145
-169 3 148 3 147 -62 72 c-260 304 -310 338 -385 263z"/>
<path d="M1680 8053 c-86 -59 -241 -349 -408 -764 -201 -499 -282 -830 -282
-1150 0 -112 1 -117 29 -156 16 -22 42 -45 59 -52 27 -11 36 -11 68 5 29 15
49 40 93 117 61 106 210 322 217 314 7 -7 -89 -317 -147 -479 -89 -247 -147
-354 -242 -453 -60 -62 -68 -122 -23 -164 40 -38 83 -37 149 3 99 60 257 190
366 301 57 58 105 104 106 103 2 -2 15 -27 29 -56 54 -106 158 -254 278 -394
69 -80 119 -103 162 -74 14 9 33 27 42 41 27 41 11 81 -71 180 -116 139 -177
229 -251 369 -38 71 -82 142 -97 157 -39 39 -84 46 -136 20 -22 -12 -41 -25
-41 -29 0 -4 -23 -32 -50 -62 l-49 -55 45 135 c100 301 185 606 200 716 12 98
-31 164 -108 164 -21 0 -51 -6 -66 -14 -46 -24 -148 -142 -290 -334 -34 -46
-62 -82 -62 -79 0 30 38 209 65 309 100 360 345 949 483 1160 93 141 98 165
45 214 -31 29 -78 31 -113 7z"/>
<path d="M4710 6613 c-8 -3 -24 -13 -35 -23 -27 -24 -113 -32 -145 -15 -42 24
-82 17 -174 -30 -250 -127 -516 -366 -605 -542 -36 -73 -71 -211 -82 -334 -20
-203 13 -404 90 -559 126 -256 285 -401 529 -487 95 -33 100 -34 227 -30 149
5 267 32 419 96 392 167 564 350 617 656 22 130 -5 448 -51 597 -75 242 -261
494 -423 573 -109 52 -331 112 -367 98z"/>
<path d="M5831 4363 c-42 -39 -47 -71 -19 -113 26 -39 51 -49 183 -73 66 -12
86 -12 111 -2 70 28 83 94 32 150 -28 31 -44 37 -111 50 -120 23 -161 20 -196
-12z"/>
<path d="M6965 3374 c-383 -159 -878 -242 -1543 -261 -164 -4 -273 -2 -354 7
-110 12 -119 11 -150 -7 -18 -10 -40 -32 -48 -48 -8 -17 -25 -40 -37 -52 -53
-53 -33 -117 73 -232 114 -123 261 -203 472 -257 449 -115 994 -43 1455 194
195 100 316 189 408 303 51 63 62 87 55 122 -8 42 -32 65 -78 77 -31 9 -38 15
-38 35 0 16 -6 25 -15 25 -9 0 -15 10 -15 26 0 37 -59 94 -96 94 -16 -1 -56
-12 -89 -26z"/>
<path d="M7494 3316 c-60 -27 -81 -87 -46 -136 9 -14 46 -55 81 -90 117 -119
235 -292 432 -636 215 -374 415 -767 624 -1229 123 -271 260 -626 361 -935 47
-146 88 -271 90 -277 4 -17 204 -18 204 -2 0 42 -175 565 -273 814 -274 698
-696 1539 -1045 2080 -114 176 -255 345 -330 395 -51 34 -55 34 -98 16z"/>
<path d="M4514 3076 c-48 -21 -171 -134 -266 -243 -164 -189 -244 -307 -445
-659 -127 -220 -178 -282 -284 -338 -120 -63 -313 -182 -490 -301 -186 -126
-425 -301 -457 -335 -29 -32 -35 -66 -17 -102 8 -17 14 -32 13 -33 -72 -36
-392 -327 -533 -485 -164 -183 -208 -256 -269 -449 -20 -63 -36 -118 -36 -123
0 -4 47 -8 104 -8 l104 0 6 33 c16 82 80 221 136 295 81 108 425 451 486 485
12 7 14 -43 15 -335 0 -189 2 -356 4 -373 1 -16 3 -47 4 -67 l1 -38 98 0 97 0
-2 516 c-2 466 -4 518 -19 542 -17 25 -17 26 22 59 58 50 353 255 521 362 183
117 337 203 423 237 59 23 67 29 83 69 25 59 304 538 383 656 89 133 255 330
348 413 42 38 84 82 92 98 38 74 -44 157 -122 124z"/>
<path d="M4690 2793 c-86 -13 -170 -36 -181 -49 -16 -19 -20 -65 -7 -81 14
-17 53 -16 114 2 27 8 91 18 142 23 88 9 122 19 95 29 -7 3 -13 12 -13 21 -1
10 -9 27 -19 40 -19 22 -59 27 -131 15z"/>
<path d="M6905 2613 c-197 -23 -372 -71 -501 -136 -133 -67 -229 -158 -479
-453 -273 -322 -431 -545 -484 -686 -10 -26 -11 -25 -148 110 -206 205 -353
316 -485 369 -37 16 -68 31 -68 34 0 3 37 14 83 23 119 26 137 34 137 63 0 13
-7 35 -16 48 -19 29 -38 28 -132 -3 -34 -12 -89 -24 -121 -28 -74 -8 -90 -17
-71 -38 22 -27 5 -29 -72 -7 -99 28 -217 50 -310 57 -77 7 -77 7 -107 -25 -40
-43 -47 -82 -24 -129 l18 -37 110 -13 c204 -23 439 -93 570 -169 135 -78 360
-284 548 -502 85 -99 143 -175 354 -464 l92 -126 -167 0 c-106 0 -203 -5 -267
-16 -246 -39 -558 -159 -998 -382 l-192 -98 219 -3 219 -2 171 76 c306 136
475 191 656 213 109 14 265 14 369 0 70 -9 85 -9 106 5 24 16 25 15 68 -42 58
-76 84 -122 106 -190 l20 -57 105 -3 c58 -1 106 -1 106 2 0 19 -58 181 -80
226 -15 30 -105 159 -199 285 -203 272 -223 298 -287 390 -26 39 -84 115 -127
170 l-78 99 26 19 c14 11 46 60 71 110 25 51 71 128 101 172 128 184 475 598
598 713 127 119 301 189 542 217 166 19 203 41 203 115 0 81 -56 109 -185 93z"/>
<path d="M4775 2429 c-16 -5 -39 -11 -50 -13 -11 -2 -38 -9 -60 -14 -22 -6
-61 -16 -87 -23 -44 -11 -46 -13 -37 -36 5 -13 9 -35 9 -48 0 -21 3 -22 34
-15 18 4 38 10 43 13 5 3 41 11 79 16 77 12 143 30 162 44 6 5 12 27 12 48 0
39 0 39 -37 38 -21 0 -51 -5 -68 -10z"/>
<path d="M8374 1450 c-37 -15 -62 -58 -68 -113 -2 -29 -10 -124 -16 -212 -20
-296 -103 -817 -175 -1097 l-7 -28 106 0 c58 0 106 2 106 5 0 2 13 67 30 143
80 378 133 758 156 1113 7 122 -4 156 -57 183 -36 18 -45 19 -75 6z"/>
</g>
</svg>
